<?xml version="1.0" encoding="UTF-8" standalone="no"?>
<svg
   fill="none"
   viewBox="0 0 32 32"
   version="1.1"
   id="svg188"
   sodipodi:docname="pickup-truck.svg"
   inkscape:version="1.2.2 (1:1.2.2+202212051552+b0a8486541)"
   xmlns:inkscape="http://www.inkscape.org/namespaces/inkscape"
   xmlns:sodipodi="http://sodipodi.sourceforge.net/DTD/sodipodi-0.dtd"
   xmlns="http://www.w3.org/2000/svg"
   xmlns:svg="http://www.w3.org/2000/svg">
  <defs
     id="defs192" />
  <sodipodi:namedview
     id="namedview190"
     pagecolor="#ffffff"
     bordercolor="#666666"
     borderopacity="1.0"
     inkscape:showpageshadow="2"
     inkscape:pageopacity="0.0"
     inkscape:pagecheckerboard="0"
     inkscape:deskcolor="#d1d1d1"
     showgrid="false"
     inkscape:zoom="25.5625"
     inkscape:cx="15.98044"
     inkscape:cy="16"
     inkscape:window-width="1920"
     inkscape:window-height="1020"
     inkscape:window-x="0"
     inkscape:window-y="32"
     inkscape:window-maximized="1"
     inkscape:current-layer="svg188" />
  <path
     d="m 11.76,6.5 h 3.6 C 16.7903,6.5 18,7.6758 18,9.12 v 3.38 h 12.04 c 0.55,0 1,0.45 1,1 0,0.55 -0.45,1 -1,1 H 30 v 6.65 c 0,1.3071 -1.0625,2.35 -2.35,2.35 h -1.9868 c -0.5617,1.1825 -1.767,2 -3.1632,2 -1.3962,0 -2.6015,-0.8175 -3.1632,-2 h -7.6736 c -0.5617,1.1825 -1.767,2 -3.1632,2 -1.3962,0 -2.60145,-0.8175 -3.16318,-2 H 3.35999 c -1.30229,0 -2.35,-1.0477 -2.35,-2.35 V 19.6419 C 1.00341,19.5956 1,19.5482 1,19.5 v -3 C 1,16.4409 1.00513,16.383 1.01496,16.3267 1.10523,14.7545 2.41586,13.5 4.00999,13.5 H 4.5079 L 8.82767,7.8899 C 8.87028,7.8346 8.91812,7.7844 8.97023,7.7398 9.67072,6.9752 10.6833,6.5 11.76,6.5 Z m -3.26,12 c 1.7632,0 3.2219,1.3039 3.4646,3 h 7.0708 c 0.2427,-1.6961 1.7014,-3 3.4646,-3 1.7632,0 3.2219,1.3039 3.4646,3 H 27.65 C 27.8425,21.5 28,21.3429 28,21.15 V 19.4013 C 27.4453,19.1955 27.0305,18.6881 27,18.07 26.9683,17.3872 27.3967,16.7989 28,16.5855 V 15.5 H 17 c -0.5523,0 -1,-0.4477 -1,-1 V 9.12 C 16,8.8042 15.7097,8.5 15.36,8.5 h -3.6 c -0.515,0 -1.0238,0.2435 -1.3627,0.645 -0.0215,0.0255 -0.0442,0.0498 -0.0679,0.0728 L 10.1121,9.5 H 12.1 c 0.5,0 0.9,0.4 0.9,0.9 v 3.24 c 0,0.48 -0.38,0.86 -0.86,0.86 H 6.2621 L 5.79233,15.1101 C 5.60302,15.356 5.3103,15.5 5,15.5 H 4.00999 c -0.54771,0 -1,0.4523 -1,1 l -1e-5,0.0046 C 3.56349,16.5554 4,17.0237 4,17.59 v 0.82 c 0,0.5663 -0.43651,1.0346 -0.99002,1.0854 l 1e-5,0.0046 v 1.65 c 0,0.1977 0.1523,0.35 0.35,0.35 h 1.67545 c 0.24262,-1.6961 1.70132,-3 3.46456,-3 z m 0,5 C 9.32843,23.5 10,22.8284 10,22 10,21.1716 9.32843,20.5 8.5,20.5 7.67158,20.5 7,21.1716 7,22 c 0,0.8284 0.67158,1.5 1.5,1.5 z m 14,0 c 0.8284,0 1.5,-0.6716 1.5,-1.5 0,-0.8284 -0.6716,-1.5 -1.5,-1.5 -0.8284,0 -1.5,0.6716 -1.5,1.5 0,0.8284 0.6716,1.5 1.5,1.5 z"
     fill="#212121"
     id="path186"
     style="stroke-width:1;stroke-dasharray:none" />
</svg>
